<?xml version="1.0" standalone="no"?>
<!DOCTYPE svg PUBLIC "-//W3C//DTD SVG 20010904//EN"
 "http://www.w3.org/TR/2001/REC-SVG-20010904/DTD/svg10.dtd">
<svg version="1.0" xmlns="http://www.w3.org/2000/svg"
 width="976.000000pt" height="976.000000pt" viewBox="0 0 976.000000 976.000000"
 preserveAspectRatio="xMidYMid meet">
<metadata>
Created by potrace 1.11, written by Peter Selinger 2001-2013
</metadata>
<g transform="translate(0.000000,976.000000) scale(0.100000,-0.100000)"
fill="#000000" stroke="none">
<path d="M5220 9673 c-74 -26 -210 -82 -277 -115 -45 -21 -85 -38 -89 -38 -4
1 -10 -2 -13 -8 -3 -5 -28 -21 -54 -35 -61 -34 -98 -58 -115 -74 -7 -7 -17
-13 -21 -13 -18 0 -160 -148 -192 -200 -65 -103 -116 -233 -134 -337 -7 -47
-18 -53 -94 -59 -25 -2 -57 -6 -71 -9 -14 -3 -38 -8 -55 -11 -16 -3 -73 -14
-125 -25 -52 -12 -105 -22 -117 -24 -12 -2 -27 -6 -34 -11 -14 -9 -6 7 27 52
39 53 112 225 129 304 2 8 11 47 20 85 27 112 51 258 62 371 5 57 4 62 -22 82
-15 12 -36 20 -47 19 -16 -3 -185 -122 -208 -147 -3 -3 -29 -25 -59 -50 -142
-117 -331 -338 -331 -387 0 -7 -4 -13 -8 -13 -7 0 -17 -25 -38 -95 -27 -87
-36 -157 -38 -267 0 -71 -4 -128 -8 -128 -9 0 -96 -39 -215 -96 -51 -24 -96
-44 -99 -43 -4 0 -10 -3 -13 -8 -6 -9 -105 -63 -115 -63 -3 0 -2 10 3 23 28
69 33 89 44 162 1 11 5 25 8 30 12 22 0 445 -15 531 -3 12 -8 48 -12 80 -7 63
-37 104 -75 104 -22 0 -118 -95 -119 -117 0 -6 -4 -13 -9 -15 -16 -6 -171
-231 -171 -248 0 -6 -4 -10 -9 -10 -5 0 -14 -15 -21 -32 -8 -18 -19 -40 -26
-48 -7 -8 -13 -18 -13 -23 0 -4 -7 -20 -15 -35 -21 -42 -63 -164 -72 -208 -9
-49 -9 -225 -1 -280 4 -23 18 -79 31 -125 28 -96 38 -77 -84 -174 -41 -33 -92
-76 -114 -95 -21 -19 -51 -46 -66 -60 -15 -14 -49 -46 -76 -71 l-50 -47 0 122
c1 66 -3 137 -7 156 -21 95 -32 132 -59 210 -16 47 -35 99 -42 115 -8 17 -28
62 -45 101 -55 128 -95 199 -114 202 -39 8 -67 -8 -88 -51 -12 -23 -21 -42
-19 -42 1 0 -4 -20 -10 -45 -7 -25 -14 -52 -15 -60 -1 -8 -5 -22 -8 -30 -11
-26 -51 -196 -63 -269 -3 -18 -7 -42 -9 -53 -19 -95 -26 -285 -13 -358 14 -81
52 -206 70 -227 6 -7 8 -13 4 -13 -4 0 12 -34 34 -76 l41 -76 -23 -34 c-13
-19 -26 -34 -30 -34 -5 0 -8 -7 -8 -15 0 -9 -7 -18 -15 -21 -8 -4 -15 -9 -15
-13 0 -6 -127 -206 -163 -255 -13 -19 -14 -18 -15 10 -3 62 -25 128 -83 249
-58 121 -152 276 -170 283 -5 2 -9 8 -9 13 0 17 -151 204 -175 216 -39 21 -78
-2 -90 -52 -2 -5 -6 -28 -9 -50 -6 -37 -9 -61 -22 -175 -3 -25 -6 -73 -8 -106
-2 -34 -6 -66 -10 -73 -4 -6 -3 -11 1 -11 10 0 8 -94 -2 -110 -3 -5 -2 -10 3
-10 5 0 9 -15 9 -32 0 -112 30 -236 79 -325 18 -35 30 -63 26 -63 -4 0 -2 -4
4 -8 6 -4 22 -23 35 -42 32 -47 63 -82 131 -150 l58 -57 -24 -59 c-34 -84
-125 -349 -129 -376 -4 -23 -26 -38 -28 -19 -1 6 -2 15 -3 20 0 4 -26 46 -56
92 -55 84 -229 269 -325 345 -82 64 -87 69 -99 79 -6 6 -38 30 -71 53 -45 32
-66 42 -84 37 -48 -12 -54 -28 -47 -125 3 -49 8 -95 10 -102 3 -7 7 -31 10
-53 3 -22 8 -51 11 -65 3 -14 7 -38 10 -55 2 -16 8 -45 14 -62 5 -18 8 -33 5
-33 -3 0 0 -8 5 -19 6 -10 13 -32 16 -49 3 -17 10 -44 17 -59 6 -15 12 -30 13
-33 9 -35 33 -94 56 -132 16 -27 29 -52 29 -55 0 -8 97 -121 130 -151 43 -40
161 -121 217 -149 36 -19 52 -32 48 -43 -2 -8 -7 -44 -11 -80 -3 -36 -8 -83
-10 -105 -3 -32 -8 -144 -14 -290 0 -5 -24 15 -53 45 -63 67 -138 130 -153
130 -7 0 -14 7 -18 15 -3 8 -12 15 -20 15 -8 0 -16 3 -18 8 -8 17 -375 201
-405 202 -5 1 -26 9 -47 19 -22 10 -46 17 -55 16 -9 -2 -22 -4 -28 -4 -7 -1
-20 -15 -28 -31 -15 -29 -15 -35 6 -93 12 -34 25 -67 30 -73 5 -6 6 -14 2 -17
-3 -4 -1 -7 5 -7 7 0 11 -3 10 -7 -2 -11 24 -73 67 -158 19 -38 35 -75 35 -82
0 -7 4 -13 8 -13 5 0 14 -12 21 -27 27 -60 122 -192 180 -250 76 -77 152 -129
256 -176 84 -37 220 -79 229 -70 5 6 11 -18 20 -82 3 -22 8 -53 12 -70 9 -51
33 -169 39 -195 3 -14 8 -38 10 -54 3 -16 10 -37 15 -46 16 -30 -1 -30 -45 0
-43 29 -144 79 -200 98 -16 6 -39 13 -50 18 -11 4 -24 8 -30 9 -5 2 -39 11
-75 20 -36 9 -75 19 -88 21 -12 2 -50 9 -85 15 -34 6 -71 12 -82 14 -178 25
-220 26 -238 1 -23 -31 -12 -72 34 -133 23 -32 45 -60 49 -63 3 -3 13 -14 21
-26 89 -131 317 -348 429 -410 19 -10 43 -26 54 -34 10 -8 21 -14 25 -14 3 1
11 0 16 -2 128 -41 168 -47 295 -50 l135 -3 29 -58 c73 -146 194 -393 192
-393 -1 0 -26 9 -57 19 -30 11 -86 25 -124 32 -77 13 -310 16 -420 5 -38 -4
-77 -7 -85 -7 -8 -1 -42 -5 -75 -10 -33 -5 -75 -11 -93 -13 -71 -9 -92 -64
-47 -118 14 -16 25 -27 25 -23 0 3 11 -4 25 -17 29 -27 36 -33 100 -77 28 -19
52 -38 55 -41 3 -4 52 -36 110 -71 148 -92 277 -151 381 -175 41 -9 170 -19
189 -15 3 1 30 4 60 6 30 3 64 7 75 9 56 13 142 37 162 45 18 8 24 5 39 -17
19 -29 18 -28 72 -92 56 -68 211 -238 222 -245 25 -15 3 -20 -93 -21 -56 0
-122 -4 -147 -8 -25 -4 -54 -9 -65 -11 -39 -6 -236 -65 -294 -89 -33 -13 -62
-21 -65 -18 -3 3 -6 -1 -6 -8 0 -7 -3 -11 -6 -8 -5 6 -122 -42 -171 -70 -28
-15 -39 -53 -23 -81 6 -12 27 -28 48 -37 76 -33 258 -106 272 -109 8 -2 15 -4
15 -5 0 -1 9 -4 20 -6 27 -6 35 -9 65 -21 14 -6 29 -9 33 -6 4 3 14 -1 22 -7
8 -7 15 -10 15 -7 0 3 16 1 36 -5 161 -44 366 -41 489 8 22 9 49 18 60 20 11
2 21 8 23 14 2 5 11 10 20 10 10 1 42 16 72 35 84 53 100 60 108 49 14 -22
304 -222 382 -264 24 -14 24 -14 -30 -25 -87 -18 -129 -32 -240 -83 -76 -35
-301 -178 -357 -226 -7 -6 -39 -31 -72 -56 -55 -41 -71 -61 -77 -99 -3 -18 40
-61 63 -62 20 -1 52 -6 98 -14 64 -11 268 -25 360 -25 152 1 271 15 340 41
133 50 230 113 334 217 68 68 75 73 104 66 17 -3 38 -10 47 -14 83 -41 346
-129 398 -132 6 -1 12 -2 12 -4 0 -1 -27 -16 -60 -33 -165 -84 -325 -235 -522
-494 -66 -87 -76 -105 -73 -135 4 -45 35 -75 77 -75 35 0 55 3 223 34 28 5 64
12 80 15 40 7 253 70 290 85 17 7 32 13 35 13 3 1 41 19 84 41 72 36 195 142
246 210 36 49 87 134 109 182 13 29 27 51 30 49 3 -2 33 -7 66 -10 33 -4 80
-9 105 -12 25 -3 91 -7 147 -9 56 -1 106 -6 111 -9 6 -3 22 -2 36 4 30 11 34
1 9 -23 -104 -97 -130 -128 -194 -227 -60 -93 -122 -211 -164 -311 -15 -35
-35 -82 -45 -104 -10 -22 -24 -59 -31 -83 -11 -39 -11 -44 10 -66 17 -18 31
-23 54 -21 50 5 381 151 424 186 7 6 13 8 13 3 0 -5 4 -4 8 1 10 14 90 65 102
65 5 0 10 4 10 8 0 4 13 16 30 25 48 29 154 138 192 197 41 64 108 205 114
240 9 55 28 132 34 135 8 5 49 12 106 20 21 2 62 9 89 15 28 5 62 12 78 15 65
12 85 17 145 31 35 9 65 14 68 12 2 -3 -5 -16 -17 -29 -37 -43 -112 -208 -135
-296 -25 -99 -55 -236 -59 -268 -2 -22 -6 -49 -9 -60 -5 -25 -18 -119 -22
-163 -5 -53 10 -79 51 -86 30 -6 41 -3 66 18 17 15 34 26 37 26 4 0 21 12 37
28 17 15 48 40 70 57 106 79 294 267 350 350 22 33 43 62 46 65 11 9 59 137
75 200 20 78 22 100 23 231 l1 105 48 17 c27 10 128 58 225 106 98 49 177 88
177 86 0 -1 -9 -27 -19 -58 -11 -31 -22 -71 -25 -89 -3 -18 -8 -44 -11 -58
-10 -42 -12 -330 -3 -330 5 0 4 -8 -1 -19 -6 -10 -8 -20 -6 -23 5 -5 10 -39
20 -138 13 -135 29 -195 51 -204 29 -11 64 -6 82 12 29 31 96 115 132 168 105
152 138 203 144 221 4 13 13 29 19 35 28 30 111 234 102 249 -4 5 -2 9 3 9 12
0 13 8 17 150 4 130 -6 205 -43 315 l-19 56 46 37 c25 20 51 42 57 47 7 6 33
28 60 50 72 60 134 116 176 158 20 20 39 37 40 37 2 0 4 -51 4 -113 1 -97 8
-146 39 -282 19 -83 145 -414 170 -449 19 -25 82 -29 105 -6 9 9 31 52 49 96
18 43 36 88 41 99 5 11 11 27 12 35 2 8 7 18 11 21 4 3 9 16 10 27 1 12 4 22
7 22 4 0 7 6 8 13 2 20 7 41 14 52 10 17 57 227 63 280 11 100 4 209 -16 262
-5 13 -6 23 -4 23 4 0 -13 48 -40 115 -4 11 -7 23 -7 28 1 4 -2 7 -8 7 -5 0
-10 6 -10 14 0 7 -11 30 -25 50 -13 20 -21 36 -18 36 4 0 -3 10 -14 23 -11 12
-22 29 -25 37 -4 11 71 126 120 185 4 6 32 48 62 95 30 47 57 87 61 90 3 3 9
15 13 28 8 24 25 30 27 10 4 -67 33 -155 84 -261 71 -147 105 -200 233 -372
107 -142 133 -161 182 -135 17 9 22 21 35 90 5 26 16 118 19 160 1 14 6 31 10
38 4 7 2 12 -6 12 -8 0 -9 3 -2 8 5 4 10 35 9 70 0 34 2 62 5 62 7 0 4 95 -4
108 -3 6 -2 13 4 17 6 4 7 11 4 17 -4 6 -8 36 -10 67 -1 31 -5 67 -8 81 -3 14
-8 36 -10 50 -3 14 -8 34 -10 45 -15 73 -96 218 -166 298 -56 64 -112 117
-122 117 -17 0 -7 40 41 166 27 72 59 164 70 205 12 41 26 82 32 92 5 10 7 22
4 27 -4 6 -4 10 -1 10 3 0 18 -24 32 -52 39 -78 150 -231 186 -258 4 -3 38
-35 75 -71 37 -35 93 -85 123 -109 30 -25 57 -47 60 -50 3 -3 37 -29 76 -58
77 -56 112 -64 143 -33 21 21 21 43 5 163 -3 29 -7 62 -8 73 -1 11 -4 25 -7
30 -3 6 -6 26 -8 45 -2 19 -19 96 -38 170 -19 74 -37 145 -40 157 -3 13 -10
23 -15 23 -5 0 -7 4 -4 9 7 11 -76 171 -107 208 -82 97 -191 184 -303 242
l-61 32 8 45 c11 56 17 140 25 309 3 72 8 132 10 134 2 2 16 -11 31 -30 15
-18 41 -45 57 -59 16 -14 34 -30 40 -36 26 -24 125 -93 173 -120 29 -16 53
-32 53 -36 0 -5 5 -8 10 -8 6 0 70 -28 143 -63 72 -35 158 -74 190 -86 31 -13
60 -27 62 -32 8 -12 37 1 57 25 21 26 23 65 4 111 -8 18 -12 36 -8 39 3 3 0 6
-7 6 -7 0 -11 6 -8 14 3 8 3 16 -1 18 -4 2 -25 44 -47 93 -22 50 -59 126 -82
169 -24 44 -43 83 -43 88 0 4 -4 8 -10 8 -5 0 -10 4 -10 10 0 19 -95 144 -154
202 -99 98 -263 182 -428 218 -40 9 -58 18 -59 29 -4 54 -31 216 -55 321 -12
58 -14 66 -18 85 -2 11 -9 32 -15 48 -6 15 -7 27 -3 27 8 0 54 -30 62 -40 13
-18 265 -123 265 -111 0 1 12 -2 28 -8 15 -6 38 -13 50 -15 12 -3 33 -8 47
-10 14 -3 36 -8 50 -11 14 -3 87 -15 163 -26 165 -25 220 -21 241 19 13 25 11
30 -32 92 -26 36 -49 67 -52 70 -3 3 -24 27 -45 55 -112 141 -284 310 -354
349 -9 5 -18 12 -21 15 -10 12 -97 59 -122 66 -5 2 -9 3 -10 5 -2 1 -10 3 -18
5 -8 2 -39 11 -69 19 -81 22 -145 30 -254 29 -94 -1 -98 -1 -107 22 -29 77
-152 329 -162 333 -4 2 -8 10 -8 17 0 8 -10 30 -21 50 l-21 36 53 -20 c77 -28
158 -42 258 -46 47 -2 88 -4 91 -5 3 -1 10 -1 15 0 6 1 55 4 110 6 109 5 190
11 190 14 0 1 11 3 25 4 144 15 185 30 193 72 4 22 -3 36 -37 71 -22 23 -46
43 -53 43 -6 0 -13 4 -15 9 -1 5 -55 45 -118 90 -63 45 -120 84 -126 89 -71
50 -285 148 -349 158 -11 2 -38 7 -60 12 -32 7 -178 7 -245 1 -17 -2 -191 -46
-212 -54 -8 -3 -26 12 -43 35 -17 23 -41 54 -55 69 -14 15 -41 47 -60 71 -19
24 -66 77 -105 118 -38 41 -71 78 -73 82 -2 4 14 5 35 1 59 -10 175 -1 303 24
67 13 314 95 405 134 140 61 161 82 137 135 -9 20 -83 66 -105 66 -3 0 -30 11
-59 23 -51 23 -145 60 -160 63 -5 1 -9 2 -10 4 -2 1 -10 3 -18 6 -8 2 -65 17
-126 33 -201 54 -363 61 -468 21 -15 -5 -26 -7 -26 -5 0 10 -208 -79 -220 -94
-3 -3 -22 -15 -42 -26 -21 -11 -38 -23 -38 -28 0 -7 -125 76 -140 93 -10 12
-197 135 -244 161 l-49 27 69 15 c89 21 133 36 224 81 80 40 92 46 158 89 24
15 45 27 48 27 3 0 10 4 17 10 60 49 77 61 77 53 0 -4 4 -3 8 3 4 7 43 39 87
71 78 58 126 103 110 103 -4 0 -2 6 4 14 17 20 -38 76 -76 77 -33 1 -68 5
-103 13 -141 29 -508 26 -635 -5 -58 -15 -201 -80 -240 -111 -67 -52 -150
-126 -179 -159 -35 -41 -36 -42 -68 -28 -18 8 -35 14 -38 15 -7 1 -39 14 -75
29 -16 7 -88 32 -160 55 -188 60 -176 54 -130 75 122 57 332 241 450 395 27
36 54 70 60 76 59 64 101 133 96 159 -1 11 -12 28 -23 39 -17 16 -30 18 -91
13 -40 -4 -97 -11 -127 -16 -30 -6 -71 -12 -90 -15 -19 -3 -46 -8 -60 -11 -21
-5 -99 -21 -135 -29 -5 -1 -14 -4 -20 -8 -13 -7 -78 -22 -87 -20 -5 1 -8 -3
-8 -9 0 -5 -4 -8 -9 -4 -5 3 -59 -20 -118 -50 -105 -53 -198 -128 -268 -215
-23 -29 -93 -141 -116 -185 -16 -33 -17 -33 -126 -21 -114 13 -167 16 -312 21
-145 4 -175 9 -127 21 14 3 26 10 26 14 0 5 8 11 18 14 22 8 112 91 112 104 0
5 6 12 14 15 8 3 29 27 47 54 18 26 36 50 39 53 15 11 121 201 168 300 92 194
97 215 62 250 -20 20 -40 24 -70 13z m-175 -1038 c55 -3 117 -8 138 -11 62 -7
122 -16 124 -17 0 -1 3 -56 6 -122 3 -66 10 -135 15 -152 6 -18 9 -33 7 -33
-2 0 7 -31 20 -69 23 -69 65 -153 91 -182 8 -8 14 -19 14 -23 0 -4 6 -13 13
-20 6 -8 32 -37 57 -67 57 -68 168 -178 250 -249 35 -30 68 -59 74 -65 26 -24
103 -83 119 -92 27 -14 66 -4 84 23 11 18 14 40 9 96 -7 99 -16 167 -31 248
-4 19 -8 44 -9 55 -11 81 -73 287 -112 375 -20 44 -73 129 -96 154 -25 28 -17
30 39 11 26 -9 55 -18 63 -20 8 -2 35 -10 60 -19 25 -9 56 -19 69 -22 14 -3
29 -8 35 -12 6 -4 14 -7 19 -8 4 -1 9 -3 12 -4 3 -1 8 -3 13 -5 10 -3 41 -15
89 -36 l41 -19 -13 -44 c-12 -41 -19 -74 -31 -151 -23 -153 10 -320 98 -490
23 -44 46 -90 52 -102 6 -13 14 -23 19 -23 4 0 7 -4 7 -9 0 -17 131 -202 215
-305 43 -52 77 -62 111 -32 23 21 26 32 48 186 26 183 26 447 1 560 -3 14 -7
36 -10 50 -7 34 -30 98 -38 106 -4 4 -7 13 -7 21 0 9 13 5 43 -13 113 -71 182
-118 185 -126 2 -4 10 -8 18 -8 8 0 14 -4 14 -10 0 -5 4 -10 10 -10 5 0 37
-20 69 -45 l60 -46 -17 -29 c-9 -17 -20 -30 -24 -30 -5 0 -8 -4 -8 -9 0 -5
-12 -35 -27 -67 -15 -33 -28 -61 -28 -64 -1 -3 -7 -25 -15 -50 -47 -157 -44
-287 11 -495 31 -121 40 -147 91 -274 62 -157 86 -203 101 -198 7 2 19 1 27
-3 29 -15 58 8 85 67 38 83 111 270 125 323 7 25 15 52 18 60 2 8 6 22 7 30 2
8 6 26 9 40 28 115 37 229 26 304 -4 25 -4 48 -2 51 3 3 21 -12 39 -32 19 -21
53 -58 77 -83 50 -53 172 -199 189 -226 3 -6 -17 -36 -46 -66 -113 -120 -177
-226 -209 -348 -27 -106 -32 -155 -32 -320 0 -136 4 -206 21 -340 4 -30 7 -67
7 -82 1 -16 4 -28 9 -28 4 0 7 -9 7 -20 0 -18 30 -43 55 -45 19 -2 61 27 81
56 10 16 22 29 27 29 4 0 7 7 7 15 0 8 5 15 10 15 6 0 13 8 17 18 3 9 23 37
42 62 44 55 101 136 101 144 0 3 15 29 34 58 35 56 96 181 111 228 29 92 33
113 37 158 2 31 18 47 18 18 0 -8 4 -16 9 -18 4 -1 43 -75 85 -163 43 -88 84
-173 92 -188 20 -41 19 -43 -33 -74 -54 -31 -48 -27 -128 -90 -33 -26 -75 -63
-93 -82 -32 -35 -118 -154 -114 -158 1 -2 -8 -24 -20 -50 -12 -27 -22 -50 -23
-53 -1 -3 -14 -45 -29 -93 -15 -48 -30 -100 -32 -115 -3 -15 -7 -35 -10 -44
-8 -27 -18 -82 -29 -153 -2 -16 -7 -48 -10 -70 -4 -22 -8 -59 -9 -83 -2 -23
-5 -45 -8 -47 -13 -13 6 -53 33 -69 27 -16 31 -16 62 -1 49 23 249 183 351
280 46 45 150 165 173 201 47 72 74 123 80 147 8 39 20 33 28 -15 4 -24 12
-49 17 -55 6 -7 8 -13 5 -13 -2 0 2 -30 10 -67 7 -38 16 -84 19 -103 3 -19 7
-42 10 -51 3 -9 7 -38 10 -64 2 -26 7 -51 9 -56 6 -9 -13 -22 -40 -26 -71 -11
-269 -104 -330 -154 -146 -120 -264 -302 -401 -621 -18 -43 -30 -78 -27 -78 4
0 2 -5 -5 -12 -7 -7 -12 -27 -12 -45 0 -49 38 -71 93 -55 58 17 57 17 100 36
21 9 62 27 92 41 30 13 55 21 55 17 0 -4 4 -2 8 4 4 6 39 26 77 45 39 19 72
37 75 40 3 3 21 14 40 24 44 22 168 114 206 152 16 15 46 48 66 73 l37 45 -4
-100 c-8 -183 -15 -275 -29 -363 -4 -21 -28 -32 -47 -22 -9 5 -18 8 -20 5 -2
-2 -36 -6 -74 -9 -39 -3 -81 -8 -95 -11 -14 -3 -34 -7 -45 -9 -46 -9 -153 -49
-195 -73 -111 -64 -274 -211 -375 -338 -22 -27 -46 -57 -54 -65 -36 -37 -121
-160 -126 -182 -4 -16 0 -32 14 -49 17 -21 26 -24 83 -22 34 1 77 4 93 8 17 3
41 8 55 9 55 8 116 17 130 21 8 2 31 7 50 10 41 7 211 55 225 63 6 4 19 8 29
9 28 5 149 68 198 103 23 17 43 28 46 26 6 -7 -61 -215 -109 -341 -37 -93 -44
-105 -61 -99 -11 3 -28 8 -37 9 -9 2 -17 4 -18 5 -7 6 -95 21 -145 25 -107 9
-139 8 -243 -11 -94 -18 -285 -107 -419 -196 -62 -43 -272 -203 -283 -217 -16
-21 -13 -68 7 -86 9 -8 49 -19 90 -25 41 -6 89 -13 105 -15 60 -9 212 -19 295
-19 178 0 282 15 398 58 23 8 42 11 42 6 0 -6 -4 -10 -10 -10 -5 0 -10 -6 -10
-12 0 -16 -204 -320 -231 -344 -19 -17 -22 -17 -88 19 -195 106 -370 133 -586
92 -117 -22 -333 -93 -460 -150 -27 -12 -60 -25 -72 -29 -31 -10 -62 -52 -56
-76 6 -24 32 -40 108 -69 33 -12 67 -26 75 -30 8 -4 62 -22 120 -41 58 -18
112 -35 120 -38 17 -6 24 -8 60 -16 65 -15 110 -23 110 -19 0 2 6 1 12 -4 26
-15 223 -22 298 -10 l45 8 -75 -74 c-77 -75 -189 -174 -272 -240 l-48 -38 -46
43 c-26 24 -54 50 -63 59 -29 29 -138 98 -196 124 -73 34 -135 53 -205 62 -73
10 -367 9 -455 -1 -38 -5 -86 -10 -105 -12 -19 -1 -36 -3 -37 -3 -2 -1 -6 -2
-10 -3 -5 -1 -28 -5 -52 -10 -77 -14 -95 -72 -38 -122 57 -52 250 -191 330
-239 108 -66 258 -137 297 -142 3 0 10 -3 16 -7 9 -6 84 -19 122 -21 20 -1 14
-13 -15 -28 -15 -8 -58 -30 -94 -50 -113 -62 -290 -138 -305 -132 -8 3 -14 11
-14 17 0 7 -13 30 -30 52 -16 21 -30 44 -30 51 0 7 -6 16 -12 20 -7 4 -35 35
-63 67 -27 33 -76 79 -110 104 -61 45 -192 112 -219 112 -8 0 -17 4 -20 9 -3
4 -20 12 -38 16 -18 4 -38 9 -44 10 -6 2 -36 10 -65 18 -30 8 -74 18 -99 22
-25 4 -54 9 -65 12 -77 16 -194 31 -265 34 -39 1 -70 -28 -70 -65 0 -24 95
-160 153 -218 9 -10 17 -20 17 -23 0 -16 185 -204 255 -260 28 -22 52 -43 53
-47 2 -5 9 -8 15 -8 6 0 18 -6 26 -14 9 -8 47 -30 85 -49 l69 -34 -54 -11
c-30 -6 -97 -20 -149 -31 -114 -24 -148 -29 -220 -37 l-55 -6 -22 80 c-40 145
-117 280 -212 370 -55 53 -221 172 -239 172 -5 0 -15 7 -22 15 -7 8 -16 13
-20 10 -5 -3 -10 -1 -12 3 -4 9 -96 54 -218 107 -47 20 -96 41 -110 47 -14 7
-42 13 -62 16 -31 3 -39 -1 -54 -23 -13 -20 -15 -31 -6 -48 5 -12 16 -38 23
-57 7 -19 27 -65 45 -102 18 -38 30 -68 26 -68 -4 0 -2 -4 3 -8 6 -4 16 -20
24 -37 30 -62 135 -235 143 -235 4 0 8 -6 8 -13 0 -18 105 -135 159 -176 25
-20 63 -45 84 -55 20 -11 37 -22 37 -26 0 -16 -476 6 -542 26 -13 4 -16 18
-16 77 1 40 -3 90 -7 112 -4 22 -8 51 -10 65 -6 37 -10 54 -16 65 -6 9 -18 56
-20 72 -2 25 -104 182 -151 234 -97 108 -135 145 -236 231 -83 72 -218 168
-244 173 -23 6 -34 2 -53 -19 -13 -14 -22 -34 -20 -45 2 -11 6 -50 10 -87 3
-37 7 -70 9 -73 2 -3 7 -30 11 -60 4 -30 9 -63 11 -75 3 -19 6 -32 19 -91 2
-11 8 -35 14 -53 5 -18 10 -34 11 -37 0 -3 2 -10 4 -17 41 -146 78 -229 143
-321 19 -27 33 -50 31 -52 -2 -1 -52 14 -113 34 -60 20 -112 37 -115 38 -49
15 -206 77 -217 85 -7 6 -10 14 -7 19 3 5 8 22 10 36 3 15 8 30 12 33 4 3 8
14 9 24 1 11 4 42 8 70 8 54 8 207 0 245 -21 112 -105 309 -168 395 -4 6 -28
42 -53 81 -25 38 -56 81 -67 96 -12 14 -29 36 -37 49 -23 35 -91 114 -105 122
-23 14 -67 4 -80 -17 -13 -20 -18 -44 -30 -140 -3 -27 -8 -61 -10 -75 -8 -40
-18 -209 -17 -285 0 -135 21 -290 47 -350 7 -16 16 -40 19 -52 6 -20 5 -21
-18 -10 -14 7 -26 15 -26 20 0 4 -6 7 -13 7 -7 0 -22 7 -32 15 -11 8 -58 40
-105 71 -47 32 -111 77 -143 101 l-57 44 19 27 c25 36 80 153 86 182 3 13 8
26 13 29 4 3 7 18 7 34 -1 15 2 27 5 27 4 0 7 6 8 13 0 6 3 30 6 52 7 49 8
149 2 193 -13 88 -17 111 -26 140 -5 18 -6 32 -3 32 3 0 0 7 -7 15 -7 8 -10
15 -7 15 6 0 -49 168 -74 225 -7 17 -13 32 -14 35 -4 13 -28 71 -52 127 -30
68 -59 89 -108 77 -22 -5 -34 -20 -56 -70 -16 -35 -29 -70 -29 -79 0 -8 -5
-15 -12 -15 -6 0 -9 -3 -5 -6 3 -3 -3 -26 -13 -50 -11 -24 -17 -44 -13 -44 3
0 1 -6 -4 -12 -11 -14 -45 -112 -48 -138 -1 -8 -5 -22 -8 -30 -5 -15 -16 -57
-23 -95 -2 -11 -8 -42 -13 -70 -5 -27 -9 -103 -8 -167 l2 -116 -55 57 c-81 85
-162 178 -214 245 l-45 59 42 42 c83 83 127 143 179 247 23 45 43 90 44 98 3
29 15 83 19 91 21 32 21 412 0 517 -1 9 -6 49 -10 87 -8 73 -27 134 -48 147
-42 27 -80 -4 -189 -152 -192 -260 -298 -478 -307 -627 0 -13 -5 -23 -9 -23
-9 0 -143 259 -186 359 -29 69 -28 72 26 93 16 5 28 14 28 19 0 5 5 9 11 9 10
0 40 22 113 80 34 28 109 109 134 147 25 36 92 168 96 188 2 6 14 48 29 95 14
47 29 101 33 120 4 19 9 40 10 45 7 32 17 83 18 100 2 11 6 47 11 80 4 33 8
62 7 65 0 3 4 10 8 15 5 6 5 17 0 25 -5 8 -5 21 -1 29 13 25 4 71 -16 87 -35
26 -65 16 -157 -55 -50 -38 -101 -77 -112 -88 -12 -10 -43 -36 -69 -58 -43
-37 -123 -115 -187 -184 -16 -16 -28 -35 -28 -40 0 -6 -4 -11 -9 -11 -17 0
-121 -177 -121 -207 0 -36 -18 5 -34 77 -26 119 -27 124 -32 150 -2 14 -9 48
-14 75 -5 28 -12 68 -15 91 -6 46 -5 47 95 78 227 73 397 224 529 471 18 33
36 67 41 75 5 8 18 35 29 60 11 25 33 75 50 113 16 37 28 67 26 67 -3 0 4 17
15 38 29 56 33 96 12 121 -22 28 -55 33 -89 15 -16 -7 -33 -14 -39 -14 -5 0
-28 -8 -50 -19 -21 -10 -61 -28 -89 -40 -248 -108 -446 -244 -553 -381 l-20
-24 4 69 c13 270 23 384 35 406 7 13 25 16 86 16 43 0 94 4 113 8 19 4 44 8
55 9 38 5 140 38 180 58 138 70 305 221 457 413 26 33 52 65 56 71 55 65 82
110 82 134 0 36 -37 67 -76 64 -32 -2 -107 -12 -139 -18 -11 -2 -47 -7 -79
-11 -69 -7 -319 -69 -371 -90 -19 -9 -37 -15 -40 -15 -14 2 -166 -86 -194
-112 -45 -42 -45 -42 34 192 25 74 48 144 50 154 3 11 10 23 16 26 6 4 10 10
10 14 -1 3 1 17 5 31 5 19 10 23 23 16 17 -9 98 -28 166 -38 53 -9 201 -8 245
1 81 16 151 41 250 89 57 27 109 54 115 59 18 15 86 58 91 58 3 0 42 27 86 60
43 33 81 60 84 60 4 0 39 28 92 76 41 36 46 78 14 105 -48 39 -467 74 -657 55
-89 -9 -197 -36 -247 -62 -16 -8 -28 -12 -28 -9 0 7 140 227 149 235 3 3 11
12 16 21 30 48 92 129 103 133 7 3 30 -6 51 -19 37 -25 195 -96 209 -94 4 1 9
0 12 -1 3 -1 12 -3 20 -5 8 -2 26 -7 40 -10 53 -15 216 -11 310 6 103 19 286
71 331 95 16 8 31 14 34 14 19 1 208 82 223 97 18 18 23 52 11 75 -10 18 -59
44 -169 87 -30 12 -64 26 -75 31 -50 22 -138 50 -155 50 -11 0 -20 5 -20 10 0
6 -3 9 -7 8 -11 -3 -86 12 -98 20 -5 3 -21 7 -35 9 -14 1 -45 6 -70 10 -25 4
-96 8 -158 8 -61 0 -112 1 -112 3 0 2 11 13 24 25 178 163 280 250 313 268 19
10 26 7 65 -31 130 -128 294 -217 437 -236 25 -3 57 -8 71 -10 70 -10 347 -3
451 11 28 4 66 9 83 11 117 14 149 31 149 81 0 33 -28 58 -187 173 -61 44
-116 84 -123 90 -7 5 -17 10 -23 10 -5 0 -10 3 -10 8 0 4 -10 12 -23 18 -12 6
-60 31 -107 56 -98 52 -212 93 -287 103 -29 4 -53 10 -53 14 0 4 15 14 33 22
17 9 82 41 144 72 61 31 116 57 122 57 6 0 11 5 11 12 0 6 3 9 6 5 4 -3 28 5
55 18 l48 25 7 -23 c3 -12 13 -29 21 -39 8 -9 15 -22 17 -30 1 -12 50 -88 86
-132 56 -71 191 -186 219 -186 6 0 11 -4 11 -10 0 -5 3 -9 8 -8 4 0 36 -13 72
-29 36 -17 94 -40 130 -53 36 -12 73 -26 83 -32 11 -5 21 -7 24 -4 3 2 17 0
32 -6 22 -9 89 -26 166 -43 79 -17 231 -36 250 -31 13 3 33 22 45 41 21 34 21
34 2 77 -16 37 -126 189 -182 253 -10 11 -38 42 -62 70 -107 122 -214 215
-317 276 -41 24 -77 44 -80 44 -39 4 -59 26 -28 31 20 4 50 10 82 18 116 28
107 26 210 41 22 4 56 10 75 14 68 14 83 9 92 -29 4 -19 10 -44 12 -55 29
-126 113 -283 200 -370 56 -56 150 -135 160 -135 4 0 16 -9 28 -20 12 -11 28
-20 35 -20 7 0 13 -4 13 -9 0 -5 9 -13 20 -16 11 -3 26 -12 33 -18 37 -34 358
-193 408 -202 120 -22 88 164 -84 495 -92 177 -217 342 -299 395 -16 9 -28 20
-28 24 0 7 68 6 215 -4z"/>
</g>
</svg>
