<svg width="100" height="100" viewBox="0 0 100 100" version="1.1" xmlns="http://www.w3.org/2000/svg" xmlns:xlink="http://www.w3.org/1999/xlink">
<title>Group 5.1</title>
<desc>Created using Figma</desc>
<g id="Canvas" transform="translate(-1955 308)">
<g id="Group 5.1">
<g id="Group 4.1">
<g id="Group 3">
<g id="Rectangle (Stroke)">
<use xlink:href="#path0_fill" transform="translate(1955 -308)" fill="#323232"/>
</g>
<g id="Ellipse (Stroke)">
<use xlink:href="#path1_fill" transform="translate(1981 -282)" fill="#323232"/>
</g>
<g id="Ellipse 2">
<use xlink:href="#path2_fill" transform="translate(2030 -291)" fill="#323232"/>
</g>
</g>
</g>
</g>
</g>
<defs>
<path id="path0_fill" fill-rule="evenodd" d="M 72 5L 28 5C 15.2975 5 5 15.2974 5 28L 5 72C 5 84.7026 15.2974 95 28 95L 72 95C 84.7026 95 95 84.7026 95 72L 95 28C 95 15.2975 84.7026 5 72 5ZM 28 0C 12.536 0 0 12.536 0 28L 0 72C 0 87.464 12.536 100 28 100L 72 100C 87.464 100 100 87.464 100 72L 100 28C 100 12.536 87.464 0 72 0L 28 0Z"/>
<path id="path1_fill" fill-rule="evenodd" d="M 24 43C 34.4934 43 43 34.4934 43 24C 43 13.5066 34.4934 5 24 5C 13.5066 5 5 13.5066 5 24C 5 34.4934 13.5066 43 24 43ZM 24 48C 37.2548 48 48 37.2548 48 24C 48 10.7452 37.2548 0 24 0C 10.7452 0 0 10.7452 0 24C 0 37.2548 10.7452 48 24 48Z"/>
<path id="path2_fill" d="M 12 6C 12 9.31371 9.31371 12 6 12C 2.68629 12 0 9.31371 0 6C 0 2.68629 2.68629 0 6 0C 9.31371 0 12 2.68629 12 6Z"/>
</defs>
</svg>
