<svg width="88" height="88" viewBox="0 0 88 88" version="1.1" xmlns="http://www.w3.org/2000/svg" xmlns:xlink="http://www.w3.org/1999/xlink">
<title>Group</title>
<desc>Created using Figma</desc>
<g id="Canvas" transform="translate(3063 -2247)">
<g id="Group">
<g id="Rectangle">
<use xlink:href="#path0_fill" transform="translate(-3063 2247)" fill="#323232DD"/>
<mask id="mask0_outline_ins">
<use xlink:href="#path0_fill" fill="white" transform="translate(-3063 2247)"/>
</mask>
<g mask="url(#mask0_outline_ins)">
<use xlink:href="#path1_stroke_2x" transform="translate(-3063 2247)" fill="none"/>
</g>
</g>
<g id="Vector">
<use xlink:href="#path2_stroke" transform="translate(-3039 2277)" fill="#E0D6BF"/>
</g>
</g>
</g>
<defs>
<path id="path0_fill" d="M 0 10C 0 4.47715 4.47715 0 10 0L 78 0C 83.5228 0 88 4.47715 88 10L 88 78C 88 83.5228 83.5228 88 78 88L 10 88C 4.47715 88 0 83.5228 0 78L 0 10Z"/>
<path id="path1_stroke_2x" d="M 10 5L 78 5L 78 -5L 10 -5L 10 5ZM 83 10L 83 78L 93 78L 93 10L 83 10ZM 78 83L 10 83L 10 93L 78 93L 78 83ZM 5 78L 5 10L -5 10L -5 78L 5 78ZM 10 83C 7.23858 83 5 80.7614 5 78L -5 78C -5 86.2843 1.71573 93 10 93L 10 83ZM 83 78C 83 80.7614 80.7614 83 78 83L 78 93C 86.2843 93 93 86.2843 93 78L 83 78ZM 78 5C 80.7614 5 83 7.23858 83 10L 93 10C 93 1.71573 86.2843 -5 78 -5L 78 5ZM 10 -5C 1.71573 -5 -5 1.71573 -5 10L 5 10C 5 7.23858 7.23858 5 10 5L 10 -5Z"/>
<path id="path2_stroke" d="M -2.01716 26.5232C -2.8328 27.6372 -2.59089 29.2015 -1.47685 30.0172C -0.362802 30.8328 1.20152 30.5909 2.01716 29.4768L -2.01716 26.5232ZM 20.5 0L 22.5172 -1.47685C 22.0463 -2.11995 21.297 -2.5 20.5 -2.5C 19.703 -2.5 18.9537 -2.11995 18.4828 -1.47685L 20.5 0ZM 38.9828 29.4768C 39.7985 30.5909 41.3628 30.8328 42.4768 30.0172C 43.5909 29.2015 43.8328 27.6372 43.0172 26.5232L 38.9828 29.4768ZM 2.01716 29.4768L 22.5172 1.47685L 18.4828 -1.47685L -2.01716 26.5232L 2.01716 29.4768ZM 18.4828 1.47685L 38.9828 29.4768L 43.0172 26.5232L 22.5172 -1.47685L 18.4828 1.47685Z"/>
</defs>
</svg>
